<svg xmlns="http://www.w3.org/2000/svg" width="48.333" height="48.167" viewBox="0 0 48.333 48.167">
  <g id="carRim" transform="translate(-879.793 -971)">
    <circle id="Ellipse_3" data-name="Ellipse 3" cx="10" cy="10" r="10" transform="translate(894 985)" fill="#fff"/>
    <rect id="Rectangle_1" data-name="Rectangle 1" width="10" height="10" transform="matrix(-0.695, 0.719, -0.719, -0.695, 911.57, 994.877)" fill="#7d7d7d"/>
    <g id="Rectangle_2" data-name="Rectangle 2" transform="translate(902 971)" fill="#fff" stroke="#707070" stroke-width="1">
      <rect width="5" height="13" stroke="none"/>
      <rect x="0.5" y="0.5" width="4" height="12" fill="none"/>
    </g>
    <g id="Rectangle_3" data-name="Rectangle 3" transform="translate(928.039 992.387) rotate(89)" fill="#fff" stroke="#707070" stroke-width="1">
      <rect width="5" height="13" stroke="none"/>
      <rect x="0.5" y="0.5" width="4" height="12" fill="none"/>
    </g>
    <g id="Rectangle_4" data-name="Rectangle 4" transform="matrix(-0.999, 0.035, -0.035, -0.999, 907.451, 1018.992)" fill="#fff" stroke="#707070" stroke-width="1">
      <rect width="5" height="13" stroke="none"/>
      <rect x="0.5" y="0.5" width="4" height="12" fill="none"/>
    </g>
    <g id="Rectangle_5" data-name="Rectangle 5" transform="matrix(-0.035, -0.999, 0.999, -0.035, 879.967, 998.838)" fill="#fff" stroke="#707070" stroke-width="1">
      <rect width="5" height="13" stroke="none"/>
      <rect x="0.5" y="0.5" width="4" height="12" fill="none"/>
    </g>
    <rect id="Rectangle_6" data-name="Rectangle 6" width="5" height="13" transform="matrix(0.616, -0.788, 0.788, 0.616, 883.842, 981.968)" fill="#7c7c7c"/>
    <rect id="Rectangle_8" data-name="Rectangle 8" width="5" height="13" transform="matrix(-0.616, -0.788, 0.788, -0.616, 887.637, 1012.583)" fill="#7c7c7c"/>
    <rect id="Rectangle_9" data-name="Rectangle 9" width="5" height="13" transform="matrix(-0.616, -0.788, 0.788, -0.616, 914.914, 989.972)" fill="#7c7c7c"/>
    <rect id="Rectangle_7" data-name="Rectangle 7" width="5" height="13" transform="matrix(0.616, -0.788, 0.788, 0.616, 911.57, 1003.968)" fill="#7c7c7c"/>
  </g>
</svg>
